Coordinates
version=1
nRows=13
nColumns=30
inDegrees=yes

Units are S.I. units (second, meters, Newtons, ...)
Angles are in degrees.

endheader
time	floatyaw	floatroll	floatpitch	floatx	floaty	floatz	pro_sup_l	deviation_l	flexion_l	cmc_flexion_l	cmc_abduction_l	mp_flexion_l	ip_flexion_l	2mcp_flexion_l	2mcp_abduction_l	2pm_flexion_l	2md_flexion_l	3mcp_flexion_l	3mcp_abduction_l	3pm_flexion_l	3md_flexion_l	4mcp_flexion_l	4mcp_abduction_l	4pm_flexion_l	4md_flexion_l	5mcp_flexion_l	5mcp_abduction_l	5pm_flexion_l	5md_flexion_l
-0.495000	-0.679314	-3.115271	87.889519	-0.004552	-0.224794	0.011061	87.420212	0.230105	-3.585113	24.187829	2.651421	-17.319746	-27.400913	17.097113	6.314740	33.161468	20.502317	4.027050	4.033448	38.749111	21.119800	-7.806495	-3.791218	57.777216	27.305284	-21.479114	-7.273552	65.680068	34.347580
-0.485000	-0.679314	-3.115271	87.889519	-0.003033	-0.223715	0.013328	87.008695	0.414198	-3.145997	23.387834	3.465219	-17.123314	-26.406472	17.435032	6.409907	32.774103	20.613380	4.399748	4.109847	38.260870	21.158223	-7.543675	-3.877317	57.310038	27.184209	-20.334682	-7.346867	64.120687	33.628559
-0.475000	-0.679314	-3.115271	87.889519	-0.001089	-0.222182	0.016052	86.535428	0.725534	-2.545855	22.326748	4.335506	-16.921091	-25.295009	17.928512	6.429428	32.296816	20.568135	4.836842	4.193350	37.686180	21.155345	-7.263296	-3.906859	56.695639	27.028951	-18.650774	-7.465037	61.936602	32.517842
-0.465000	-0.679314	-3.115271	87.889519	0.001305	-0.220277	0.019171	86.019597	1.224257	-1.818944	21.012336	5.222552	-16.700307	-24.082878	18.632613	6.352526	31.672212	20.288240	5.387559	4.275042	36.999880	21.082698	-6.926660	-3.863278	55.943514	26.846664	-16.331703	-7.584968	59.159247	30.962537
-0.455000	-0.679314	-3.115271	87.889519	0.004138	-0.218193	0.022585	85.485308	1.951646	-1.043640	19.526598	6.096490	-16.454398	-22.835026	19.545774	6.194071	30.890423	19.762643	6.107883	4.348190	36.183185	20.933235	-6.477026	-3.748657	55.096559	26.664251	-13.472218	-7.667165	55.979515	29.072916
-0.445000	-0.679314	-3.115271	87.889519	0.007386	-0.216124	0.026198	84.977799	2.913754	-0.305931	18.008333	6.934843	-16.191271	-21.650679	20.600540	5.999487	30.008397	19.054149	7.025197	4.407403	35.248563	20.724358	-5.862981	-3.578781	54.223443	26.512920	-10.365281	-7.695850	52.715624	27.093421
-0.435000	-0.679314	-3.115271	87.889519	0.011041	-0.214172	0.029960	84.569809	4.079071	0.337790	16.611016	7.710544	-15.934725	-20.632609	21.695329	5.826567	29.126684	18.271129	8.119647	4.447960	34.249416	20.488533	-5.067401	-3.373750	53.401244	26.412854	-7.416835	-7.684668	49.730333	25.315736
-0.425000	-0.679314	-3.115271	87.889519	0.015107	-0.212315	0.033881	84.347987	5.389697	0.876303	15.452468	8.384455	-15.714814	-19.851254	22.744824	5.724303	28.343682	17.522571	9.330683	4.467041	33.269181	20.257394	-4.127073	-3.151480	52.698487	26.367825	-5.003562	-7.664820	47.327327	23.976161
-0.415000	-0.679314	-3.115271	87.889519	0.019594	-0.210468	0.038002	84.384337	6.778032	1.332704	14.579505	8.915034	-15.551829	-19.320250	23.714807	5.717850	27.717629	16.880850	10.580090	4.466143	32.394905	20.047449	-3.127316	-2.926901	52.159011	26.368869	-3.344678	-7.665775	45.666300	23.180345
-0.405000	-0.679314	-3.115271	87.889519	0.024487	-0.208560	0.042373	84.709114	8.180850	1.740468	13.964590	9.282399	-15.444406	-18.996106	24.622499	5.804426	27.253914	16.366769	11.797120	4.452155	31.687440	19.853601	-2.168655	-2.713943	51.784949	26.400501	-2.449776	-7.702250	44.730448	22.882474
-0.395000	-0.679314	-3.115271	87.889519	0.029745	-0.206595	0.047021	85.300409	9.547595	2.124817	13.532454	9.508677	-15.369668	-18.801153	25.509701	5.960422	26.916734	15.957080	12.936131	4.435607	31.162556	19.653112	-1.322157	-2.526064	51.526744	26.445800	-2.156776	-7.773338	44.357716	22.921925
-0.385000	-0.679314	-3.115271	87.889519	0.035305	-0.204658	0.051949	86.094588	10.843413	2.498825	13.197839	9.656682	-15.295102	-18.655899	26.410802	6.155666	26.653818	15.606309	13.983260	4.427275	30.792455	19.418654	-0.600703	-2.374216	51.294166	26.491156	-2.224844	-7.869376	44.318650	23.097104
-0.375000	-0.679314	-3.115271	87.889519	0.041108	-0.202868	0.057136	87.010253	12.047950	2.871033	12.894501	9.805136	-15.194656	-18.504462	27.333268	6.367674	26.422057	15.272848	14.952195	4.435751	30.526177	19.134885	0.035558	-2.264369	50.991960	26.531365	-2.429603	-7.978887	44.404106	23.242712
